<?xml version="1.0" standalone="no"?>
<svg viewBox="0 0 200 200" xmlns="http://www.w3.org/2000/svg">
  <path fill="#FF0066" d="M37.9,-63.2C47.7,-52.7,53.3,-39.8,62,-26.6C70.7,-13.4,82.5,0.1,79.2,10.3C76,20.5,57.8,27.4,45.6,36.9C33.3,46.5,27.1,58.7,17.7,62.2C8.4,65.8,-4,60.8,-16.5,56.8C-29,52.8,-41.5,49.8,-49.9,42.1C-58.2,34.4,-62.3,22,-61.8,10.3C-61.3,-1.4,-56.2,-12.4,-50.7,-22.6C-45.1,-32.7,-39.1,-42,-30.5,-53.2C-22,-64.3,-11,-77.4,1.5,-79.7C14,-82.1,28.1,-73.8,37.9,-63.2Z" transform="translate(100 100)" />
</svg>
